<mxfile host="app.diagrams.net" modified="2023-07-07T19:59:13.516Z" agent="Mozilla/5.0 (Windows NT 10.0; Win64; x64) AppleWebKit/537.36 (KHTML, like Gecko) Chrome/103.0.0.0 Safari/537.36" etag="Fjw3pn8CuEnKxjVwJQdk" version="21.6.1" type="device">
  <diagram name="Page-1" id="5f0bae14-7c28-e335-631c-24af17079c00">
    <mxGraphModel dx="1167" dy="572" grid="1" gridSize="10" guides="1" tooltips="1" connect="1" arrows="1" fold="1" page="1" pageScale="1" pageWidth="1100" pageHeight="850" background="none" math="0" shadow="0">
      <root>
        <mxCell id="0" />
        <mxCell id="1" parent="0" />
        <mxCell id="w6U3mIkPfeFUHyvYHuqn-75" value="" style="shape=folder;fontStyle=1;spacingTop=10;tabWidth=80;tabHeight=20;tabPosition=left;html=1;whiteSpace=wrap;" vertex="1" parent="1">
          <mxGeometry x="36" y="35" width="704" height="160" as="geometry" />
        </mxCell>
        <mxCell id="w6U3mIkPfeFUHyvYHuqn-79" value="Backend" style="text;html=1;align=center;verticalAlign=middle;resizable=0;points=[];autosize=1;strokeColor=none;fillColor=none;" vertex="1" parent="1">
          <mxGeometry x="40" y="30" width="70" height="30" as="geometry" />
        </mxCell>
        <mxCell id="w6U3mIkPfeFUHyvYHuqn-92" style="edgeStyle=orthogonalEdgeStyle;rounded=0;orthogonalLoop=1;jettySize=auto;html=1;exitX=1;exitY=0.5;exitDx=0;exitDy=0;entryX=1;entryY=0.5;entryDx=0;entryDy=0;entryPerimeter=0;endArrow=none;endFill=0;" edge="1" parent="1" source="w6U3mIkPfeFUHyvYHuqn-80" target="w6U3mIkPfeFUHyvYHuqn-91">
          <mxGeometry relative="1" as="geometry" />
        </mxCell>
        <mxCell id="w6U3mIkPfeFUHyvYHuqn-80" value="ViewModel" style="html=1;dropTarget=0;whiteSpace=wrap;" vertex="1" parent="1">
          <mxGeometry x="56" y="85" width="180" height="90" as="geometry" />
        </mxCell>
        <mxCell id="w6U3mIkPfeFUHyvYHuqn-81" value="" style="shape=module;jettyWidth=8;jettyHeight=4;" vertex="1" parent="w6U3mIkPfeFUHyvYHuqn-80">
          <mxGeometry x="1" width="20" height="20" relative="1" as="geometry">
            <mxPoint x="-27" y="7" as="offset" />
          </mxGeometry>
        </mxCell>
        <mxCell id="w6U3mIkPfeFUHyvYHuqn-95" style="edgeStyle=orthogonalEdgeStyle;rounded=0;orthogonalLoop=1;jettySize=auto;html=1;exitX=1;exitY=0.5;exitDx=0;exitDy=0;endArrow=none;endFill=0;" edge="1" parent="1" source="w6U3mIkPfeFUHyvYHuqn-82" target="w6U3mIkPfeFUHyvYHuqn-94">
          <mxGeometry relative="1" as="geometry" />
        </mxCell>
        <mxCell id="w6U3mIkPfeFUHyvYHuqn-82" value="Repository/Model" style="html=1;dropTarget=0;whiteSpace=wrap;" vertex="1" parent="1">
          <mxGeometry x="300" y="85" width="180" height="90" as="geometry" />
        </mxCell>
        <mxCell id="w6U3mIkPfeFUHyvYHuqn-83" value="" style="shape=module;jettyWidth=8;jettyHeight=4;" vertex="1" parent="w6U3mIkPfeFUHyvYHuqn-82">
          <mxGeometry x="1" width="20" height="20" relative="1" as="geometry">
            <mxPoint x="-27" y="7" as="offset" />
          </mxGeometry>
        </mxCell>
        <mxCell id="w6U3mIkPfeFUHyvYHuqn-89" value="IRepository" style="html=1;dropTarget=0;whiteSpace=wrap;" vertex="1" parent="1">
          <mxGeometry x="540" y="85" width="180" height="90" as="geometry" />
        </mxCell>
        <mxCell id="w6U3mIkPfeFUHyvYHuqn-90" value="" style="shape=module;jettyWidth=8;jettyHeight=4;" vertex="1" parent="w6U3mIkPfeFUHyvYHuqn-89">
          <mxGeometry x="1" width="20" height="20" relative="1" as="geometry">
            <mxPoint x="-27" y="7" as="offset" />
          </mxGeometry>
        </mxCell>
        <mxCell id="w6U3mIkPfeFUHyvYHuqn-93" style="edgeStyle=orthogonalEdgeStyle;rounded=0;orthogonalLoop=1;jettySize=auto;html=1;exitX=0;exitY=0.5;exitDx=0;exitDy=0;exitPerimeter=0;entryX=0;entryY=0.5;entryDx=0;entryDy=0;endArrow=none;endFill=0;" edge="1" parent="1" source="w6U3mIkPfeFUHyvYHuqn-91" target="w6U3mIkPfeFUHyvYHuqn-82">
          <mxGeometry relative="1" as="geometry" />
        </mxCell>
        <mxCell id="w6U3mIkPfeFUHyvYHuqn-91" value="" style="shape=providedRequiredInterface;html=1;verticalLabelPosition=bottom;sketch=0;rotation=-180;" vertex="1" parent="1">
          <mxGeometry x="260" y="120" width="20" height="20" as="geometry" />
        </mxCell>
        <mxCell id="w6U3mIkPfeFUHyvYHuqn-96" style="edgeStyle=orthogonalEdgeStyle;rounded=0;orthogonalLoop=1;jettySize=auto;html=1;exitX=0;exitY=0.5;exitDx=0;exitDy=0;exitPerimeter=0;endArrow=none;endFill=0;" edge="1" parent="1" source="w6U3mIkPfeFUHyvYHuqn-94" target="w6U3mIkPfeFUHyvYHuqn-89">
          <mxGeometry relative="1" as="geometry" />
        </mxCell>
        <mxCell id="w6U3mIkPfeFUHyvYHuqn-94" value="" style="shape=providedRequiredInterface;html=1;verticalLabelPosition=bottom;sketch=0;rotation=-180;" vertex="1" parent="1">
          <mxGeometry x="500" y="120" width="20" height="20" as="geometry" />
        </mxCell>
      </root>
    </mxGraphModel>
  </diagram>
</mxfile>
